<svg viewBox="0 0 479 479" xmlns="http://www.w3.org/2000/svg" xml:space="preserve" style="fill-rule:evenodd;clip-rule:evenodd;stroke-linejoin:round;stroke-miterlimit:2">
  <path d="M478.626 48.154C478.626 21.577 457.049 0 430.472 0H48.154C21.577 0 0 21.577 0 48.154v382.318c0 26.577 21.577 48.154 48.154 48.154h382.318c26.577 0 48.154-21.577 48.154-48.154V48.154Z" style="fill:#fff"/>
  <path d="M94.278 210.654a53.275 53.275 0 0 0-3.363 4.933c-24.837 41.246 10.25 108.003 78.305 148.984 64.83 39.039 136.91 40.985 164.944 4.453L94.278 210.654Z"/>
  <path d="M147.128 238.35a100.851 100.851 0 0 0 9.59 19.98c37.005 59.287 127.997 69.379 203.067 22.522 65.993-41.192 99.114-113.851 78.559-172.34L147.128 238.35Z"/>
  <path d="M113.854 241.276a100.813 100.813 0 0 0 16.376 14.934c56.517 41.111 144.665 16.388 196.721-55.175 45.761-62.91 49.257-142.686 8.292-189.219l-221.389 229.46Zm139.12 29.819 154.237 176.2-89.265.336-77.119-88.1 12.147-88.436Z"/>
  <path d="M285.652 336.481c7.355-6.515 8.037-17.776 1.521-25.131L132.365 136.596c-6.515-7.355-17.776-8.036-25.13-1.521L74.549 164.03c-7.355 6.515-8.036 17.776-1.521 25.131l154.808 174.754c6.515 7.354 17.776 8.036 25.131 1.521l32.685-28.955ZM88.871 257.062c13.115-8.009 18.879-22.507 12.865-32.355-6.015-9.849-21.545-11.342-34.659-3.333 6.003 2.459 12.61 7.293 16.837 14.216 4.228 6.923 5.512 15.009 4.957 21.472Z"/>
  <path d="M102.423 225.737c29.223-6.393 47.664-35.734 41.156-65.48-6.509-29.746-35.518-48.705-64.74-42.312-26.199 5.733-44.191 30.106-42.321 57.331L9.515 201.882l37.68 2.652c12.783 17.463 34.398 25.761 55.228 21.203Z"/>
</svg>
